<svg width="1050" height="290" viewBox="0 0 1050 290" fill="none" xmlns="http://www.w3.org/2000/svg">
<path fill-rule="evenodd" clip-rule="evenodd" d="M1029 130.966C903.043 96.7694 817.475 77.759 744.09 73.9318C666.912 69.9069 603.166 82.6743 520.039 112.337C422.794 147.037 311.63 173.757 214.81 192.973C300.429 177.661 397.123 157.926 486.584 134.528C579.291 110.282 692.445 105.241 796.18 108.773C887.999 111.899 972.496 121.744 1029 130.966ZM1049.38 135.495L1049.64 134.531C912.575 96.875 821.664 75.9741 744.194 71.934C666.676 67.8913 602.658 80.7315 519.366 110.453C329.795 178.099 87.1722 215.403 1.48359 225.869C1.18248 225.905 0.883314 225.942 0.586092 225.978L0.827367 227.964C1.12502 227.928 1.42463 227.891 1.72619 227.854C87.2708 217.415 302.541 184.731 487.09 136.464C579.524 112.289 692.455 107.243 796.112 110.772C899.759 114.301 994.06 126.401 1049.2 136.48L1049.38 135.495Z" fill="url(#paint0_linear_61_492)"/>
<path fill-rule="evenodd" clip-rule="evenodd" d="M1029 192.314C903.043 158.118 817.475 139.107 744.09 135.28C666.912 131.255 603.166 144.023 520.039 173.686C422.794 208.386 311.63 235.106 214.81 254.321C300.428 239.01 397.123 219.275 486.584 195.877C579.291 171.63 692.445 166.589 796.18 170.121C887.999 173.247 972.496 183.093 1029 192.314ZM1049.38 196.844L1049.64 195.88C912.575 158.223 821.664 137.323 744.194 133.282C666.676 129.24 602.658 142.08 519.366 171.801C329.793 239.448 87.1692 276.752 1.48203 287.217C1.18145 287.254 0.882799 287.29 0.586092 287.326L0.827367 289.312C1.12451 289.276 1.42359 289.24 1.72462 289.203C87.2681 278.764 302.54 246.079 487.09 197.812C579.524 173.638 692.455 168.591 796.112 172.121C899.759 175.65 994.06 187.749 1049.2 197.829L1049.38 196.844Z" fill="url(#paint1_linear_61_492)"/>
<path fill-rule="evenodd" clip-rule="evenodd" d="M1021.11 63.9771C964.791 46.6323 883.65 23.5454 795.844 11.0165C691.967 -3.80539 578.908 -3.82803 486.62 37.7884C326.861 109.83 144.083 161.735 42.3805 186.052C144.206 167.521 327 130.569 486.406 70.8598C579.136 36.1256 692.306 28.9075 796.034 33.9657C883.75 38.2431 964.783 51.3031 1021.11 63.9771ZM1048.92 72.663C1049.08 72.7128 1049.24 72.7626 1049.4 72.8123L1050 70.9043C994.827 53.5153 900.158 23.8803 796.126 9.03608C692.116 -5.80494 578.602 -5.88449 485.798 35.9648C300.793 119.391 84.8358 175.803 0 193.576L0.205054 194.555L0.376564 195.54C85.2538 180.77 301.918 142.1 487.107 72.7332C579.469 38.1371 692.325 30.9113 795.936 35.9638C899.533 41.0157 993.791 58.3371 1048.9 72.7642L1048.92 72.663Z" fill="url(#paint2_linear_61_492)"/>
<defs>
<linearGradient id="paint0_linear_61_492" x1="1049.64" y1="71.208" x2="1003.82" y2="377.873" gradientUnits="userSpaceOnUse">
<stop stop-color="#EB5151"/>
<stop offset="1" stop-color="#F0DF41"/>
</linearGradient>
<linearGradient id="paint1_linear_61_492" x1="1049.64" y1="132.556" x2="1003.82" y2="439.221" gradientUnits="userSpaceOnUse">
<stop stop-color="#EB5151"/>
<stop offset="1" stop-color="#F0DF41"/>
</linearGradient>
<linearGradient id="paint2_linear_61_492" x1="1050" y1="0" x2="979.611" y2="377.972" gradientUnits="userSpaceOnUse">
<stop stop-color="#EB5151"/>
<stop offset="1" stop-color="#F0DF41"/>
</linearGradient>
</defs>
</svg>
