<svg width="180" height="32" viewBox="0 0 180 32" fill="none" xmlns="http://www.w3.org/2000/svg">
<path d="M29.2628 12.2387C29.179 11.9918 29.0247 11.7749 28.819 11.6148C28.6134 11.4546 28.3653 11.3582 28.1054 11.3374L20.5041 10.7334L17.2148 3.45202C17.11 3.2175 16.9396 3.01831 16.7242 2.8785C16.5087 2.73868 16.2574 2.6642 16.0005 2.66406C15.7437 2.66392 15.4923 2.73812 15.2767 2.8777C15.0611 3.01728 14.8905 3.21628 14.7854 3.45069L11.4961 10.7334L3.89478 11.3374C3.63939 11.3576 3.39523 11.451 3.19152 11.6063C2.98781 11.7617 2.83317 11.9724 2.74611 12.2134C2.65904 12.4543 2.64323 12.7153 2.70058 12.965C2.75792 13.2147 2.88598 13.4425 3.06945 13.6214L8.68678 19.0974L6.70012 27.7C6.63979 27.9604 6.65913 28.2329 6.75561 28.4822C6.85209 28.7315 7.02127 28.946 7.24119 29.0979C7.4611 29.2499 7.72161 29.3322 7.98889 29.3342C8.25618 29.3363 8.51791 29.2579 8.74012 29.1094L16.0001 24.2694L23.2601 29.1094C23.4872 29.2601 23.7551 29.3378 24.0276 29.3318C24.3002 29.3258 24.5644 29.2365 24.7846 29.0759C25.0049 28.9153 25.1707 28.6911 25.2598 28.4334C25.3489 28.1758 25.3569 27.897 25.2828 27.6347L22.8441 19.1014L28.8921 13.6587C29.2881 13.3014 29.4334 12.744 29.2628 12.2387Z" fill="#FEC601"/>
<path d="M66.2628 12.2387C66.179 11.9918 66.0247 11.7749 65.819 11.6148C65.6134 11.4546 65.3653 11.3582 65.1054 11.3374L57.5041 10.7334L54.2148 3.45202C54.11 3.2175 53.9396 3.01831 53.7242 2.8785C53.5087 2.73868 53.2574 2.6642 53.0005 2.66406C52.7437 2.66392 52.4923 2.73812 52.2767 2.8777C52.0611 3.01728 51.8905 3.21628 51.7854 3.45069L48.4961 10.7334L40.8948 11.3374C40.6394 11.3576 40.3952 11.451 40.1915 11.6063C39.9878 11.7617 39.8332 11.9724 39.7461 12.2134C39.659 12.4543 39.6432 12.7153 39.7006 12.965C39.7579 13.2147 39.886 13.4425 40.0694 13.6214L45.6868 19.0974L43.7001 27.7C43.6398 27.9604 43.6591 28.2329 43.7556 28.4822C43.8521 28.7315 44.0213 28.946 44.2412 29.0979C44.4611 29.2499 44.7216 29.3322 44.9889 29.3342C45.2562 29.3363 45.5179 29.2579 45.7401 29.1094L53.0001 24.2694L60.2601 29.1094C60.4872 29.2601 60.7551 29.3378 61.0276 29.3318C61.3002 29.3258 61.5644 29.2365 61.7846 29.0759C62.0049 28.9153 62.1707 28.6911 62.2598 28.4334C62.3489 28.1758 62.3569 27.897 62.2828 27.6347L59.8441 19.1014L65.8921 13.6587C66.2881 13.3014 66.4334 12.744 66.2628 12.2387Z" fill="#FEC601"/>
<path d="M103.263 12.2387C103.179 11.9918 103.025 11.7749 102.819 11.6148C102.613 11.4546 102.365 11.3582 102.105 11.3374L94.5041 10.7334L91.2148 3.45202C91.11 3.2175 90.9396 3.01831 90.7242 2.8785C90.5087 2.73868 90.2574 2.6642 90.0005 2.66406C89.7437 2.66392 89.4923 2.73812 89.2767 2.8777C89.0611 3.01728 88.8905 3.21628 88.7854 3.45069L85.4961 10.7334L77.8948 11.3374C77.6394 11.3576 77.3952 11.451 77.1915 11.6063C76.9878 11.7617 76.8332 11.9724 76.7461 12.2134C76.659 12.4543 76.6432 12.7153 76.7006 12.965C76.7579 13.2147 76.886 13.4425 77.0694 13.6214L82.6868 19.0974L80.7001 27.7C80.6398 27.9604 80.6591 28.2329 80.7556 28.4822C80.8521 28.7315 81.0213 28.946 81.2412 29.0979C81.4611 29.2499 81.7216 29.3322 81.9889 29.3342C82.2562 29.3363 82.5179 29.2579 82.7401 29.1094L90.0001 24.2694L97.2601 29.1094C97.4872 29.2601 97.7551 29.3378 98.0276 29.3318C98.3002 29.3258 98.5644 29.2365 98.7846 29.0759C99.0049 28.9153 99.1707 28.6911 99.2598 28.4334C99.3489 28.1758 99.3569 27.897 99.2828 27.6347L96.8441 19.1014L102.892 13.6587C103.288 13.3014 103.433 12.744 103.263 12.2387Z" fill="#FEC601"/>
<path d="M140.263 12.2387C140.179 11.9918 140.025 11.7749 139.819 11.6148C139.613 11.4546 139.365 11.3582 139.105 11.3374L131.504 10.7334L128.215 3.45202C128.11 3.2175 127.94 3.01831 127.724 2.8785C127.509 2.73868 127.257 2.6642 127.001 2.66406C126.744 2.66392 126.492 2.73812 126.277 2.8777C126.061 3.01728 125.89 3.21628 125.785 3.45069L122.496 10.7334L114.895 11.3374C114.639 11.3576 114.395 11.451 114.192 11.6063C113.988 11.7617 113.833 11.9724 113.746 12.2134C113.659 12.4543 113.643 12.7153 113.701 12.965C113.758 13.2147 113.886 13.4425 114.069 13.6214L119.687 19.0974L117.7 27.7C117.64 27.9604 117.659 28.2329 117.756 28.4822C117.852 28.7315 118.021 28.946 118.241 29.0979C118.461 29.2499 118.722 29.3322 118.989 29.3342C119.256 29.3363 119.518 29.2579 119.74 29.1094L127 24.2694L134.26 29.1094C134.487 29.2601 134.755 29.3378 135.028 29.3318C135.3 29.3258 135.564 29.2365 135.785 29.0759C136.005 28.9153 136.171 28.6911 136.26 28.4334C136.349 28.1758 136.357 27.897 136.283 27.6347L133.844 19.1014L139.892 13.6587C140.288 13.3014 140.433 12.744 140.263 12.2387Z" fill="#FEC601"/>
<path d="M177.263 12.2387C177.179 11.9918 177.025 11.7749 176.819 11.6148C176.613 11.4546 176.365 11.3582 176.105 11.3374L168.504 10.7334L165.215 3.45202C165.11 3.2175 164.94 3.01831 164.724 2.8785C164.509 2.73868 164.257 2.6642 164.001 2.66406C163.744 2.66392 163.492 2.73812 163.277 2.8777C163.061 3.01728 162.89 3.21628 162.785 3.45069L159.496 10.7334L151.895 11.3374C151.639 11.3576 151.395 11.451 151.192 11.6063C150.988 11.7617 150.833 11.9724 150.746 12.2134C150.659 12.4543 150.643 12.7153 150.701 12.965C150.758 13.2147 150.886 13.4425 151.069 13.6214L156.687 19.0974L154.7 27.7C154.64 27.9604 154.659 28.2329 154.756 28.4822C154.852 28.7315 155.021 28.946 155.241 29.0979C155.461 29.2499 155.722 29.3322 155.989 29.3342C156.256 29.3363 156.518 29.2579 156.74 29.1094L164 24.2694L171.26 29.1094C171.487 29.2601 171.755 29.3378 172.028 29.3318C172.3 29.3258 172.564 29.2365 172.785 29.0759C173.005 28.9153 173.171 28.6911 173.26 28.4334C173.349 28.1758 173.357 27.897 173.283 27.6347L170.844 19.1014L176.892 13.6587C177.288 13.3014 177.433 12.744 177.263 12.2387Z" fill="#FEC601"/>
</svg>
